<svg aria-hidden="true" style="position: absolute; width: 0; height: 0; overflow: hidden;" version="1.1" xmlns="http://www.w3.org/2000/svg" xmlns:xlink="http://www.w3.org/1999/xlink">
<defs>
<symbol id="icon-x" viewBox="0 0 32 32">
<path d="M24 8l-16 16"></path>
<path d="M8 8l16 16"></path>
</symbol>
<symbol id="icon-btn-burger" viewBox="0 0 32 32">
<path d="M5.333 8h21.333M5.333 16h10.667M5.333 24h21.333"></path>
</symbol>
<symbol id="icon-logo" viewBox="0 0 32 32">
<path d="M29.082 0.314h-4.009c-1.237 0-2.24 0.983-2.24 2.195v3.929c0 1.212 1.003 2.195 2.24 2.195h4.009c1.237 0 2.24-0.983 2.24-2.195v-3.929c0-1.212-1.003-2.195-2.24-2.195z"></path>
<path d="M6.73 23.040h-4.318c-1.332 0-2.412 0.983-2.412 2.195v3.929c0 1.213 1.080 2.195 2.412 2.195h4.318c1.332 0 2.412-0.983 2.412-2.195v-3.929c0-1.212-1.080-2.195-2.412-2.195z"></path>
<path d="M6.25 11.582h-4.009c-1.237 0-2.24 0.983-2.24 2.195v3.929c0 1.212 1.003 2.195 2.24 2.195h4.009c1.237 0 2.24-0.983 2.24-2.195v-3.929c0-1.212-1.003-2.195-2.24-2.195z"></path>
<path d="M17.766 22.978h-4.009c-1.237 0-2.24 0.983-2.24 2.195l-0 3.929c0 1.212 1.003 2.195 2.241 2.195h4.009c1.237 0 2.24-0.983 2.24-2.195v-3.929c0-1.213-1.003-2.195-2.24-2.195z"></path>
<path d="M6.25 0.086h-4.009c-1.237 0-2.24 0.983-2.24 2.195v3.929c0 1.212 1.003 2.195 2.24 2.195h4.009c1.237 0 2.24-0.983 2.24-2.195v-3.929c0-1.212-1.003-2.195-2.24-2.195z"></path>
<path d="M18.076 11.697h-4.009c-1.237 0-2.24 0.983-2.24 2.195v3.929c0 1.212 1.003 2.195 2.24 2.195h4.009c1.237 0 2.24-0.983 2.24-2.195v-3.929c0-1.212-1.003-2.195-2.24-2.195z"></path>
<path d="M29.333 22.978h-4.010c-1.237 0-2.24 0.983-2.24 2.195v3.929c0 1.212 1.003 2.195 2.24 2.195h4.009c1.237 0 2.24-0.983 2.24-2.195v-3.929c0-1.213-1.003-2.195-2.24-2.195z"></path>
<path d="M17.591 0.224h-4.009c-1.237 0-2.24 0.983-2.24 2.195v3.929c0 1.212 1.003 2.195 2.24 2.195h4.009c1.237 0 2.24-0.984 2.24-2.196v-3.929c0-1.212-1.003-2.195-2.24-2.195z"></path>
<path d="M29.044 11.926h-4.010c-1.237 0-2.24 0.983-2.24 2.195v3.929c0 1.212 1.003 2.195 2.24 2.195h4.009c1.237 0 2.24-0.983 2.24-2.195v-3.929c0-1.212-1.003-2.195-2.24-2.195z"></path>
</symbol>
<symbol id="icon-logo-txt" viewBox="0 0 245 32">
<path d="M15.653 20.87c-6.064 0-10.088-4.090-10.088-10.463 0-6.233 3.966-10.407 9.944-10.407 5.029 0 8.564 2.866 9.082 7.179h-4.167c-0.402-2.477-2.328-3.868-4.915-3.868-3.621 0-5.777 2.838-5.777 7.096 0 4.675 2.414 7.151 5.92 7.151 3.046 0 5.001-1.67 5.202-4.174v-0.278h-5.604v-3.117h9.484v2.56c-0.173 4.981-3.794 8.32-9.082 8.32z"></path>
<path d="M27.247 20.591v-20.313h10.088c5.144 0 7.185 2.421 7.185 5.927 0 3.144-2.299 4.647-4.972 5.009v0.083c1.724 0.417 2.5 1.336 3.219 3.144 0.92 2.282 1.063 5.009 2.242 5.983v0.167h-4.598c-0.977-0.946-1.207-3.923-1.724-5.732-0.517-1.864-1.638-2.087-3.736-2.087h-3.679v7.819h-4.024zM31.27 9.544h5.633c2.357 0 3.449-1.336 3.449-3.061 0-1.892-1.351-2.977-3.449-2.977h-5.633v6.038z"></path>
<path d="M47.192 20.591v-20.313h14.341v3.228h-10.317v4.842h9.312v3.228h-9.312v5.704h10.461v3.311h-14.485z"></path>
<path d="M64.47 20.591v-20.313h14.341v3.228h-10.317v4.842h9.311v3.228h-9.311v5.704h10.461v3.311h-14.485z"></path>
<path d="M81.748 20.591v-20.313h4.886l6.955 11.214c2.127 3.395 2.385 4.508 2.385 4.508h0.086l-0.058-15.722h4.024v20.313h-4.915l-7.214-11.548c-1.638-2.616-2.069-4.202-2.069-4.202h-0.058v15.75h-4.023z"></path>
<path d="M103.054 20.591v-4.118h4.196v4.118h-4.196z"></path>
<path d="M110.271 20.591v-20.313h4.023v8.125h9.628v-8.125h4.023v20.313h-4.023v-8.96h-9.628v8.96h-4.023z"></path>
<path d="M129.666 20.591l8.047-20.313h4.369l8.161 20.313h-4.31l-1.696-4.675h-8.708l-1.696 4.675h-4.167zM136.678 12.689h6.409l-1.869-5.009c-1.293-3.701-1.322-4.369-1.322-4.369h-0.057c0 0 0 0.668-1.294 4.369l-1.868 5.009z"></path>
<path d="M151.957 20.591v-20.313h10.087c5.145 0 7.186 2.421 7.186 5.927 0 3.144-2.3 4.647-4.973 5.009v0.083c1.724 0.417 2.5 1.336 3.219 3.144 0.92 2.282 1.063 5.009 2.241 5.983v0.167h-4.598c-0.978-0.946-1.208-3.923-1.725-5.732-0.518-1.864-1.638-2.087-3.736-2.087h-3.679v7.819h-4.024zM155.981 9.544h5.633c2.355 0 3.448-1.336 3.448-3.061 0-1.892-1.35-2.977-3.448-2.977h-5.633v6.038z"></path>
<path d="M176.167 20.591l-7.702-20.313h4.312c0 0 4.167 11.381 4.598 12.772 0.69 2.226 1.006 3.367 1.006 3.367h0.057c-0.028 0 0.288-1.141 1.006-3.367 0.461-1.391 4.455-12.772 4.455-12.772h4.167l-7.414 20.313h-4.484z"></path>
<path d="M189.713 20.591v-20.313h14.342v3.228h-10.318v4.842h9.312v3.228h-9.312v5.704h10.461v3.311h-14.485z"></path>
<path d="M214.187 20.87c-5.345 0-8.565-2.81-8.565-6.984h4.598c-0.057 2.365 1.553 3.673 3.967 3.673 2.557 0 3.765-0.974 3.765-2.421s-1.035-2.059-4.714-3.033c-3.363-0.89-7.041-1.948-7.041-6.122 0-3.311 2.99-5.983 7.702-5.983 4.857 0 7.961 2.643 7.961 6.372h-4.455c-0.028-1.976-1.408-3.061-3.506-3.061-2.040 0-3.391 1.002-3.391 2.337 0 1.586 1.12 2.087 4.051 2.894 4.339 1.169 7.846 1.642 7.846 6.177 0 3.645-3.42 6.15-8.218 6.15z"></path>
<path d="M228.959 20.591v-17.002h-6.351v-3.311h16.697v3.311h-6.322v17.002h-4.024z"></path>
</symbol>
</defs>
</svg>
